<svg height="511pt" viewBox="0 -73 511.99975 511" width="511pt" xmlns="http://www.w3.org/2000/svg"><path d="m502.738281 281.660156h-100.933593v-92.761718h100.933593c7.582031 0 11.941407 8.625 7.441407 14.726562l-19.292969 26.167969c-2.40625 3.261719-2.40625 7.710937 0 10.972656l19.292969 26.167969c4.5 6.101562.140624 14.726562-7.441407 14.726562zm0 0" fill="#fc5820"/><path d="m9.261719 281.660156h100.9375v-92.761718h-100.9375c-7.582031 0-11.941407 8.625-7.441407 14.726562l19.296876 26.167969c2.402343 3.261719 2.402343 7.710937 0 10.972656l-19.296876 26.167969c-4.5 6.101562-.140624 14.726562 7.441407 14.726562zm0 0" fill="#fc5820"/><path d="m438.089844 182.59375c0 100.566406-81.523438 182.09375-182.089844 182.09375s-182.089844-81.527344-182.089844-182.09375 81.523438-182.089844 182.089844-182.089844 182.089844 81.523438 182.089844 182.089844zm0 0" fill="#43a3f9"/><path d="m438.09375 182.59375c0 47.996094-18.5625 91.65625-48.910156 124.1875h-.011719c-3.554687 3.8125-7.273437 7.480469-11.148437 10.972656-14.824219 13.402344-31.863282 24.382813-50.507813 32.347656-21.542969 9.21875-45.226563 14.390626-70.09375 14.578126-.476563.007812-.949219.007812-1.421875.007812-.476562 0-.960938 0-1.433594-.007812-24.847656-.1875-48.511718-5.359376-70.042968-14.558594-.007813 0-.007813-.007813-.007813-.007813-18.65625-7.964843-35.707031-18.957031-50.542969-32.359375-3.851562-3.480468-7.550781-7.117187-11.105468-10.910156-30.367188-32.53125-48.960938-76.222656-48.960938-124.25 0-100.566406 81.527344-182.09375 182.09375-182.09375s182.09375 81.527344 182.09375 182.09375zm0 0" fill="#43a3f9"/><path d="m438.089844 182.59375c0 84.105469-57.019532 154.890625-134.507813 175.816406 63.050781-30.34375 106.890625-97.652344 106.890625-175.816406 0-78.160156-43.839844-145.46875-106.890625-175.8125 77.488281 20.925781 134.507813 91.710938 134.507813 175.8125zm0 0" fill="#1685fb"/><path d="m367.703125 70.5c6.292969-3.316406 12.351563-6.910156 18.109375-10.804688 1.074219-.722656 1.96875-1.371093 2.730469-1.96875-3.585938-3.800781-7.335938-7.460937-11.238281-10.929687-.050782.03125-.101563.0625-.15625.101563-5.316407 3.617187-10.898438 6.953124-16.730469 10.035156-5.953125-10.230469-12.585938-19.707032-19.808594-28.164063-4.242187-4.976562-8.613281-9.539062-13.113281-13.691406l-.011719-.011719c-21.582031-9.21875-45.316406-14.390625-70.238281-14.554687 2.578125 1.628906 9.253906 8.300781 16.667968 35.128906 3.484376 12.589844 6.53125 27.609375 9.015626 44.171875-8.839844.960938-17.832032 1.453125-26.929688 1.453125-9.09375 0-18.089844-.492187-26.929688-1.460937 2.472657-16.492188 5.503907-31.453126 8.964844-44.011719 7.4375-26.945313 14.144532-33.652344 16.710938-35.28125-24.902344.164062-48.613282 5.324219-70.1875 14.546875-.007813 0-.019532.007812-.03125.007812-4.460938 4.121094-8.816406 8.65625-13.03125 13.589844-7.253906 8.476562-13.90625 17.976562-19.894532 28.234375-5.828124-3.058594-11.421874-6.394531-16.738281-9.992187-.050781-.039063-.113281-.070313-.164062-.113282-3.917969 3.492188-7.667969 7.160156-11.261719 10.972656.785156.585938 1.699219 1.226563 2.75 1.9375 5.769531 3.882813 11.816406 7.480469 18.121094 10.796876-8.714844 17.644531-15.523438 37.066406-19.910156 57.308593-.910157 4.171875 1.738281 8.28125 5.910156 9.1875s8.285156-1.742187 9.191406-5.914062c4.152344-19.097657 10.546875-37.375 18.738281-53.917969 16.605469 7.210938 34.613281 12.535156 53.445313 15.792969-1.410156 11.527343-2.585938 23.582031-3.449219 35.953125-.300781 4.253906 2.914063 7.941406 7.167969 8.242187.183594.019531.363281.019531.546875.019531 4.019531 0 7.417969-3.109374 7.695312-7.179687.84375-12.023437 1.96875-23.703125 3.335938-34.871094 9.53125 1.0625 19.222656 1.605469 29.019531 1.605469 9.800781 0 19.492188-.542969 29.023438-1.605469 1.367187 11.167969 2.492187 22.847657 3.335937 34.871094.277344 4.070313 3.679687 7.179687 7.695313 7.179687.183593 0 .359374 0 .546874-.019531 4.253907-.300781 7.46875-3.988281 7.167969-8.242187-.863281-12.371094-2.039062-24.414063-3.449219-35.945313 18.839844-3.253906 36.847657-8.570312 53.457032-15.78125 8.1875 16.546875 14.585937 34.8125 18.726562 53.898438.785156 3.617187 3.988282 6.089843 7.542969 6.089843.546875 0 1.089844-.050781 1.648437-.175781 4.171876-.90625 6.820313-5.015625 5.910157-9.1875-4.386719-20.242187-11.199219-39.652343-19.902344-57.300781zm-144.566406-38.816406c-3.625 13.15625-6.789063 28.773437-9.363281 45.96875-16.988282-2.96875-33.203126-7.71875-48.183594-14.117188 5.335937-9.023437 11.25-17.355468 17.648437-24.835937 15.347657-17.957031 32.46875-29.90625 50.324219-35.335938-3.75 7.285157-7.222656 16.710938-10.425781 28.320313zm75.089843 45.988281c-2.585937-17.265625-5.769531-32.957031-9.414062-46.152344-3.195312-11.546875-6.65625-20.914062-10.398438-28.164062 17.894532 5.425781 35.046876 17.417969 50.441407 35.4375 6.367187 7.46875 12.257812 15.792969 17.582031 24.785156-14.976562 6.398437-31.210938 11.136719-48.210938 14.09375zm0 0" fill="#0375dd"/><path d="m385.8125 304.371094c-5.632812-3.789063-11.546875-7.300782-17.6875-10.546875 8.445312-17.296875 15.070312-36.261719 19.386719-56.011719.90625-4.160156-1.730469-8.28125-5.890625-9.199219-4.171875-.90625-8.292969 1.730469-9.210938 5.902344-4.070312 18.59375-10.28125 36.417969-18.203125 52.609375-16.6875-7.292969-34.800781-12.679688-53.753906-15.976562 1.328125-10.980469 2.429687-22.4375 3.265625-34.171876.308594-4.253906-2.90625-7.953124-7.160156-8.25-4.253906-.320312-7.953125 2.894532-8.253906 7.148438-.800782 11.382812-1.875 22.480469-3.152344 33.101562-9.570313-1.074218-19.316406-1.628906-29.152344-1.628906-9.839844 0-19.574219.546875-29.152344 1.597656-1.300781-10.808593-2.382812-22.097656-3.195312-33.6875-.300782-4.257812-3.988282-7.46875-8.253906-7.171874-4.253907.300781-7.46875 3.996093-7.167969 8.253906.832031 11.9375 1.957031 23.578125 3.304687 34.746094-18.984375 3.257812-37.125 8.601562-53.804687 15.90625-7.941407-16.265626-14.164063-34.160157-18.222657-52.835938-.90625-4.171875-5.027343-6.820312-9.191406-5.914062-4.171875.90625-6.820312 5.027343-5.910156 9.1875 4.304688 19.851562 10.941406 38.910156 19.417969 56.289062-6.140625 3.265625-12.035157 6.820312-17.636719 10.652344-1.371094.9375-2.460938 1.75-3.316406 2.472656 3.554687 3.792969 7.25 7.429688 11.105468 10.910156.285157-.183594.574219-.382812.882813-.585937 5.171875-3.492188 10.601563-6.738281 16.246094-9.726563 6.058593 10.507813 12.828125 20.234375 20.203125 28.898438 4.273437 5.007812 8.683594 9.609375 13.207031 13.773437 0 0 0 .007813.011719.007813 21.53125 9.203125 45.191406 14.371094 70.039062 14.558594-3.140625-2.03125-9.722656-10.550782-16.5625-35.386719-3.523437-12.804688-6.59375-28.125-9.097656-45.011719 8.890625-.976562 17.945312-1.480469 27.09375-1.480469s18.203125.503907 27.09375 1.480469c-2.515625 16.980469-5.605469 32.359375-9.15625 45.207031-6.832031 24.703125-13.382812 33.179688-16.515625 35.191407 24.867187-.1875 48.550781-5.359376 70.09375-14.578126 4.511719-4.164062 8.910156-8.757812 13.167969-13.753906 7.382812-8.664062 14.140625-18.398437 20.210937-28.917968 5.65625 2.988281 11.085938 6.246093 16.253907 9.734374.308593.21875.609374.414063.878906.589844 3.871094-3.492187 7.589844-7.160156 11.144531-10.972656-.898437-.710938-2.007813-1.503906-3.359375-2.410156zm-152.230469 57.484375c-17.925781-5.449219-35.109375-17.460938-50.507812-35.539063-6.53125-7.675781-12.558594-16.265625-18-25.550781 15.082031-6.480469 31.421875-11.300781 48.535156-14.308594 2.605469 17.566407 5.808594 33.542969 9.496094 46.945313 3.214843 11.671875 6.699219 21.140625 10.476562 28.453125zm95.332031-35.53125c-15.398437 18.082031-32.582031 30.09375-50.5 35.53125 3.761719-7.261719 7.222657-16.667969 10.417969-28.246094 3.707031-13.445313 6.941407-29.492187 9.550781-47.160156 17.121094 3.007812 33.46875 7.816406 48.539063 14.296875-5.425781 9.304687-11.464844 17.90625-18.007813 25.578125zm0 0" fill="#0375dd"/><path d="m449.917969 235.277344h-387.835938c-5.105469 0-9.242187-4.136719-9.242187-9.242188v-86.878906c0-5.105469 4.136718-9.246094 9.242187-9.246094h387.835938c5.105469 0 9.242187 4.140625 9.242187 9.246094v86.878906c0 5.105469-4.136718 9.242188-9.242187 9.242188zm0 0" fill="#fd9e28"/><path d="m459.164062 139.152344v86.886718c0 5.101563-4.140624 9.242188-9.242187 9.242188h-22.570313c5.101563 0 9.242188-4.140625 9.242188-9.242188v-86.886718c0-5.101563-4.140625-9.242188-9.242188-9.242188h22.570313c5.101563 0 9.242187 4.140625 9.242187 9.242188zm0 0" fill="#fd8724"/><path d="m52.839844 139.152344v86.886718c0 5.101563 4.140625 9.242188 9.242187 9.242188h22.570313c-5.101563 0-9.242188-4.140625-9.242188-9.242188v-86.886718c0-5.101563 4.140625-9.242188 9.242188-9.242188h-22.570313c-5.101562 0-9.242187 4.140625-9.242187 9.242188zm0 0" fill="#fdb659"/><g fill="#e56f17"><path d="m187.910156 212.78125c-.84375 0-1.703125-.136719-2.542968-.433594-4.03125-1.402344-6.15625-5.808594-4.75-9.839844l15.664062-44.917968c1.40625-4.027344 5.8125-6.15625 9.839844-4.75 4.03125 1.40625 6.15625 5.8125 4.753906 9.839844l-15.667969 44.917968c-1.113281 3.1875-4.101562 5.183594-7.296875 5.183594zm0 0"/><path d="m168.121094 212.78125c-.84375 0-1.703125-.136719-2.542969-.433594-4.027344-1.402344-6.15625-5.808594-4.75-9.839844l15.664063-44.917968c1.40625-4.027344 5.8125-6.15625 9.839843-4.75 4.03125 1.40625 6.15625 5.8125 4.75 9.839844l-15.664062 44.917968c-1.113281 3.1875-4.101563 5.183594-7.296875 5.183594zm0 0"/><path d="m154.3125 196.828125c-3.195312 0-6.183594-1.996094-7.292969-5.183594l-10.105469-28.964843c-1.402343-4.027344.722657-8.433594 4.753907-9.839844 4.027343-1.40625 8.433593.722656 9.839843 4.75l10.101563 28.96875c1.40625 4.027344-.722656 8.433594-4.75 9.839844-.84375.292968-1.703125.429687-2.546875.429687zm0 0"/><path d="m270.015625 212.78125c-.84375 0-1.699219-.136719-2.542969-.433594-4.027344-1.402344-6.15625-5.808594-4.75-9.839844l15.667969-44.917968c1.402344-4.027344 5.808594-6.15625 9.839844-4.75 4.027343 1.40625 6.15625 5.8125 4.75 9.839844l-15.667969 44.917968c-1.113281 3.1875-4.101562 5.183594-7.296875 5.183594zm0 0"/><path d="m250.226562 212.78125c-.84375 0-1.699218-.136719-2.542968-.433594-4.027344-1.402344-6.15625-5.808594-4.75-9.839844l15.664062-44.917968c1.40625-4.027344 5.8125-6.15625 9.839844-4.75 4.03125 1.40625 6.15625 5.808594 4.753906 9.839844l-15.667968 44.917968c-1.113282 3.1875-4.101563 5.183594-7.296876 5.183594zm0 0"/><path d="m236.417969 196.828125c-3.191407 0-6.183594-1.996094-7.292969-5.183594l-10.101562-28.964843c-1.40625-4.027344.71875-8.433594 4.75-9.839844 4.027343-1.40625 8.433593.722656 9.839843 4.75l10.101563 28.96875c1.40625 4.027344-.722656 8.433594-4.75 9.839844-.84375.292968-1.699219.429687-2.546875.429687zm0 0"/><path d="m352.121094 212.78125c-.84375 0-1.699219-.136719-2.542969-.433594-4.027344-1.402344-6.15625-5.808594-4.75-9.839844l15.664063-44.917968c1.40625-4.027344 5.8125-6.15625 9.839843-4.75 4.03125 1.40625 6.15625 5.808594 4.753907 9.839844l-15.667969 44.917968c-1.109375 3.1875-4.101563 5.183594-7.296875 5.183594zm0 0"/><path d="m332.332031 212.78125c-.84375 0-1.699219-.136719-2.542969-.433594-4.027343-1.402344-6.15625-5.808594-4.75-9.839844l15.667969-44.917968c1.40625-4.027344 5.8125-6.15625 9.839844-4.75s6.15625 5.8125 4.75 9.839844l-15.667969 44.917968c-1.109375 3.1875-4.101562 5.183594-7.296875 5.183594zm0 0"/><path d="m318.527344 196.828125c-3.195313 0-6.183594-1.996094-7.296875-5.183594l-10.101563-28.964843c-1.40625-4.027344.722656-8.433594 4.75-9.839844 4.03125-1.40625 8.433594.722656 9.839844 4.75l10.101562 28.96875c1.40625 4.027344-.71875 8.433594-4.75 9.839844-.84375.292968-1.699218.429687-2.542968.429687zm0 0"/></g></svg>